<?xml version="1.0" encoding="UTF-8"?>
<svg id="Layer_1" xmlns="http://www.w3.org/2000/svg" version="1.1" viewBox="0 0 604.2 170.7">
  <!-- Generator: Adobe Illustrator 29.2.1, SVG Export Plug-In . SVG Version: 2.1.0 Build 116)  -->
  <defs>
    <style>
      .st0 {
        fill: #00205c;
      }

      .st1 {
        fill: #e1251b;
      }
    </style>
  </defs>
  <path class="st1" d="M112.1,58.6h58.6v53.5h-58.6v58.6h-53.5v-58.6H0v-53.5h58.6V0h53.5v58.6"/>
  <g>
    <path class="st0" d="M197.4,59.2h5.5l17.5,26.3,17.5-26.3h5.5v48.1h-5.4v-39l-17.5,25.8h-.3l-17.5-25.7v38.9h-5.3v-48.1h0Z"/>
    <path class="st0" d="M274.9,58.8h5.1l21.9,48.5h-5.8l-5.6-12.7h-26.2l-5.7,12.7h-5.6l21.9-48.5h0ZM288.3,89.6l-10.9-24.5-11,24.5h21.9Z"/>
    <path class="st0" d="M311.4,59.2h5.4v43.1h27.1v5h-32.5v-48.1h0Z"/>
    <path class="st0" d="M359.8,64.2h-16.2v-5h37.7v5h-16.1v43.1h-5.4v-43.1Z"/>
    <path class="st0" d="M409.5,58.8h5.1l21.9,48.5h-5.8l-5.6-12.7h-26.2l-5.7,12.7h-5.6l21.9-48.5h0ZM422.9,89.6l-10.9-24.5-11,24.5h21.9Z"/>
  </g>
  <g>
    <path class="st0" d="M197.4,121.2h22.6c6.3,0,11.1,1.7,14.4,5s4.2,6.6,4.2,11.3h0c0,4.2-1,7.4-2.9,9.9-2,2.5-4.5,4.4-7.7,5.6l12.1,17.7h-12.7l-10.6-15.8h-8.6v15.8h-10.9v-49.5h0ZM219.3,145.2c2.7,0,4.7-.6,6.2-1.9,1.4-1.3,2.2-3,2.2-5.1h0c0-2.5-.8-4.2-2.3-5.4s-3.6-1.8-6.3-1.8h-10.8v14.1h11Z"/>
    <path class="st0" d="M246.6,121.2h37.3v9.7h-26.5v10h23.3v9.7h-23.3v10.4h26.9v9.7h-37.6v-49.5h0Z"/>
    <path class="st0" d="M292.6,121.2h19.3c3.9,0,7.4.6,10.6,1.9,3.2,1.3,6,3,8.3,5.2,2.3,2.2,4.1,4.8,5.4,7.8,1.3,3,1.9,6.2,1.9,9.7h0c0,3.6-.6,6.9-1.9,9.9-1.3,3-3.1,5.6-5.4,7.9-2.3,2.2-5.1,4-8.3,5.2-3.2,1.3-6.8,1.9-10.6,1.9h-19.3v-49.5h0ZM303.5,131.1v29.7h8.4c2.2,0,4.2-.3,6.1-1.1s3.4-1.7,4.7-3c1.3-1.3,2.3-2.9,3-4.7.7-1.8,1.1-3.8,1.1-6h0c0-2.3-.4-4.3-1.1-6.1-.7-1.8-1.7-3.4-3-4.7-1.3-1.3-2.9-2.3-4.7-3.1-1.8-.7-3.9-1.1-6.1-1.1h-8.4Z"/>
    <path class="st0" d="M390.1,170.7c-3.5,0-6.8-.6-9.8-1.9-3-1.3-5.6-3-7.8-5.2-2.2-2.2-3.9-4.8-5.1-7.8-1.2-3-1.9-6.2-1.9-9.6h0c0-3.6.6-6.8,1.9-9.8s2.9-5.6,5.1-7.9c2.2-2.3,4.8-4,7.9-5.3,3.1-1.3,6.4-2,10.1-2s4.3.2,6.1.5c1.9.4,3.5.9,5,1.5,1.5.6,2.9,1.4,4.2,2.3s2.5,1.9,3.6,3l-6.7,7.7c-1.9-1.7-3.8-3-5.7-4-1.9-1-4.1-1.4-6.5-1.4s-3.9.4-5.6,1.2-3.2,1.9-4.4,3.2c-1.2,1.4-2.2,3-2.9,4.8s-1,3.7-1,5.8h0c0,2.2.3,4.1,1,5.9s1.6,3.4,2.8,4.8,2.7,2.4,4.4,3.2c1.7.8,3.6,1.2,5.6,1.2s5.1-.5,6.9-1.5c1.9-1,3.8-2.4,5.6-4.1l6.7,6.8c-1.2,1.3-2.5,2.5-3.8,3.6-1.3,1.1-2.8,2-4.3,2.7-1.6.8-3.3,1.3-5.2,1.7s-4,.6-6.3.6h0Z"/>
    <path class="st0" d="M417.7,121.2h22.6c6.3,0,11.1,1.7,14.4,5,2.8,2.8,4.2,6.6,4.2,11.3h0c0,4.2-1,7.4-2.9,9.9s-4.5,4.4-7.7,5.6l12.1,17.7h-12.7l-10.6-15.8h-8.6v15.8h-10.9v-49.5h0ZM439.6,145.2c2.7,0,4.8-.6,6.2-1.9,1.4-1.3,2.2-3,2.2-5.1h0c0-2.5-.8-4.2-2.3-5.4-1.5-1.2-3.6-1.8-6.3-1.8h-10.8v14.1h11Z"/>
    <path class="st0" d="M491.4,170.7c-3.7,0-7.1-.6-10.2-2-3.1-1.3-5.8-3.1-8.1-5.3-2.3-2.2-4-4.8-5.3-7.8-1.3-3-1.9-6.2-1.9-9.7h0c0-3.6.6-6.8,1.9-9.8,1.3-3,3.1-5.6,5.3-7.9,2.3-2.3,5-4.1,8.1-5.4,3.1-1.3,6.6-2,10.3-2s7.1.7,10.2,2c3.1,1.3,5.8,3.1,8.1,5.3,2.3,2.2,4,4.8,5.3,7.8s1.9,6.2,1.9,9.7h0c0,3.6-.6,6.8-1.9,9.8-1.3,3-3.1,5.6-5.3,7.9s-5,4.1-8.1,5.4c-3.1,1.3-6.6,2-10.3,2ZM491.5,160.9c2.1,0,4-.4,5.8-1.2s3.3-1.9,4.6-3.2c1.3-1.4,2.2-3,3-4.8.7-1.8,1.1-3.8,1.1-5.8h0c0-2.2-.4-4.1-1.1-6-.7-1.8-1.7-3.4-3-4.8-1.3-1.4-2.9-2.5-4.6-3.3-1.8-.8-3.7-1.2-5.8-1.2s-4.1.4-5.9,1.2c-1.8.8-3.3,1.9-4.5,3.2-1.3,1.4-2.2,3-3,4.8-.7,1.8-1.1,3.8-1.1,5.8h0c0,2.2.4,4.1,1.1,6,.7,1.8,1.7,3.4,3,4.8s2.8,2.5,4.6,3.3c1.8.8,3.7,1.2,5.9,1.2h0Z"/>
    <path class="st0" d="M543.2,170.7c-3.7,0-7.3-.6-10.8-1.9-3.5-1.3-6.7-3.2-9.6-5.8l6.3-7.5c2.2,1.8,4.5,3.2,6.8,4.3,2.3,1.1,4.8,1.6,7.6,1.6s3.9-.4,5.1-1.2,1.8-1.9,1.8-3.3h0c0-.8-.1-1.4-.4-2-.2-.5-.7-1-1.4-1.5-.7-.5-1.7-.9-3-1.4-1.3-.5-2.9-.9-4.9-1.4-2.4-.6-4.6-1.3-6.6-2-2-.7-3.6-1.6-5-2.7s-2.4-2.4-3.2-4-1.1-3.6-1.1-6h0c0-2.3.4-4.3,1.2-6.1.8-1.8,2-3.3,3.5-4.6,1.5-1.3,3.2-2.3,5.3-3s4.3-1,6.8-1c3.5,0,6.8.5,9.7,1.6,3,1.1,5.7,2.6,8.2,4.5l-5.5,8c-2.2-1.5-4.3-2.6-6.3-3.5s-4.1-1.3-6.2-1.3-3.6.4-4.6,1.2-1.5,1.8-1.5,3h0c0,.9.2,1.6.5,2.2.3.6.8,1.1,1.6,1.6.8.5,1.8.9,3.2,1.3,1.3.4,3.1.9,5.1,1.4,2.4.6,4.6,1.4,6.5,2.2,1.9.8,3.5,1.8,4.8,2.9,1.3,1.1,2.3,2.4,3,3.9.7,1.5,1,3.3,1,5.4h0c0,2.5-.4,4.6-1.3,6.5-.9,1.9-2.1,3.4-3.6,4.7s-3.4,2.2-5.5,2.9c-2.2.7-4.5,1-7.1,1h0Z"/>
    <path class="st0" d="M586.5,170.7c-3.7,0-7.3-.6-10.8-1.9-3.5-1.3-6.7-3.2-9.6-5.8l6.3-7.5c2.2,1.8,4.5,3.2,6.8,4.3,2.3,1.1,4.8,1.6,7.6,1.6s3.9-.4,5.1-1.2,1.8-1.9,1.8-3.3h0c0-.8-.1-1.4-.4-2-.2-.5-.7-1-1.4-1.5-.7-.5-1.7-.9-3-1.4-1.3-.5-2.9-.9-4.9-1.4-2.4-.6-4.6-1.3-6.6-2-2-.7-3.6-1.6-5-2.7-1.4-1.1-2.4-2.4-3.2-4s-1.1-3.6-1.1-6h0c0-2.3.4-4.3,1.2-6.1.8-1.8,2-3.3,3.5-4.6,1.5-1.3,3.2-2.3,5.3-3s4.3-1,6.8-1c3.5,0,6.8.5,9.7,1.6,3,1.1,5.7,2.6,8.2,4.5l-5.5,8c-2.2-1.5-4.3-2.6-6.3-3.5-2.1-.9-4.1-1.3-6.2-1.3s-3.6.4-4.6,1.2-1.5,1.8-1.5,3h0c0,.9.2,1.6.5,2.2.3.6.8,1.1,1.6,1.6.8.5,1.8.9,3.2,1.3,1.3.4,3.1.9,5.1,1.4,2.4.6,4.6,1.4,6.5,2.2,1.9.8,3.5,1.8,4.8,2.9,1.3,1.1,2.3,2.4,3,3.9.7,1.5,1,3.3,1,5.4h0c0,2.5-.4,4.6-1.3,6.5s-2.1,3.4-3.6,4.7-3.4,2.2-5.5,2.9c-2.2.7-4.5,1-7.1,1h0Z"/>
  </g>
</svg>